Coordinates
nRows=184
nColumns=2
inDegrees=yes
endheader
time	ankle_angle_r	
2.74982	 -4.348610	
2.81232	 -4.388429	
2.87482	 -4.364994	
2.93731	 -4.361815	
2.99981	 -4.390540	
3.0623	 -4.419284	
3.1248	 -4.418389	
3.1873	 -4.378353	
3.24979	 -4.372429	
3.31229	 -4.385825	
3.37478	 -4.366175	
3.43728	 -4.355957	
3.49978	 -4.331343	
3.56227	 -4.281171	
3.62477	 -4.266256	
3.68726	 -4.250490	
3.74976	 -4.222603	
3.81226	 -4.214491	
3.87475	 -4.206036	
3.93725	 -4.227571	
3.99974	 -4.270344	
4.06224	 -4.286615	
4.12474	 -4.293715	
4.18723	 -4.270382	
4.24973	 -4.229313	
4.31222	 -4.227464	
4.37472	 -4.254123	
4.43722	 -4.301584	
4.49971	 -4.328073	
4.56221	 -4.335804	
4.6247	 -4.397235	
4.6872	 -4.424845	
4.7497	 -4.393414	
4.81219	 -4.407091	
4.87469	 -4.398547	
4.93718	 -4.344733	
4.99968	 -4.318324	
5.06218	 -4.301017	
5.12467	 -4.288975	
5.18717	 -4.256689	
5.24966	 -4.207884	
5.31216	 -4.199710	
5.37466	 -4.205497	
5.43715	 -4.236304	
5.49965	 -4.279005	
5.56214	 -4.278203	
5.62464	 -4.292321	
5.68714	 -4.292717	
5.74963	 -4.242726	
5.81213	 -4.235164	
5.87462	 -4.260228	
5.93712	 -4.295436	
5.99962	 -4.362951	
6.06211	 -4.420952	
6.12461	 -4.428923	
6.1871	 -4.365762	
6.2496	 -4.315090	
6.3121	 -4.342954	
6.37459	 -4.326145	
6.43709	 -4.275097	
6.49958	 -4.284966	
6.56208	 -4.289298	
6.62458	 -4.295307	
6.68707	 -4.290688	
6.74957	 -4.232809	
6.81206	 -4.216585	
6.87456	 -4.219103	
6.93706	 -4.214445	
6.99955	 -4.262089	
7.06205	 -4.299535	
7.12454	 -4.292558	
7.18704	 -4.256565	
7.24954	 -4.234179	
7.31203	 -4.274815	
7.37453	 -4.289204	
7.43702	 -4.280855	
7.49952	 -4.334254	
7.56202	 -4.378981	
7.62451	 -4.392350	
7.68701	 -4.386612	
7.7495	 -4.339725	
7.812	 -4.317151	
7.8745	 -4.304470	
7.93699	 -4.273930	
7.99949	 -4.297007	
8.06198	 -4.322386	
8.12448	 -4.286722	
8.18698	 -4.236769	
8.24947	 -4.213400	
8.31197	 -4.225532	
8.37446	 -4.235229	
8.43696	 -4.248898	
8.49946	 -4.285136	
8.56195	 -4.284614	
8.62445	 -4.264114	
8.68694	 -4.262440	
8.74944	 -4.253284	
8.81194	 -4.253982	
8.87443	 -4.268409	
8.93693	 -4.302711	
8.99942	 -4.360854	
9.06192	 -4.380405	
9.12442	 -4.394942	
9.18691	 -4.418211	
9.24941	 -4.374789	
9.3119	 -4.343649	
9.3744	 -4.368926	
9.4369	 -4.377385	
9.49939	 -4.393327	
9.56189	 -4.416317	
9.62438	 -4.427697	
9.68688	 -4.450069	
9.74938	 -4.435555	
9.81187	 -4.388485	
9.87437	 -4.364746	
9.93686	 -4.370705	
9.99936	 -4.395705	
10.0619	 -4.365485	
10.1244	 -4.291288	
10.1868	 -4.279951	
10.2493	 -4.276749	
10.3118	 -4.238163	
10.3743	 -4.223153	
10.4368	 -4.222015	
10.4993	 -4.243238	
10.5618	 -4.272064	
10.6243	 -4.263918	
10.6868	 -4.260745	
10.7493	 -4.258062	
10.8118	 -4.239023	
10.8743	 -4.220800	
10.9368	 -4.203192	
10.9993	 -4.247678	
11.0618	 -4.314957	
11.1243	 -4.328029	
11.1868	 -4.360786	
11.2493	 -4.390582	
11.3118	 -4.355799	
11.3743	 -4.309309	
11.4368	 -4.300819	
11.4993	 -4.347449	
11.5618	 -4.369185	
11.6243	 -4.329535	
11.6868	 -4.303474	
11.7492	 -4.264560	
11.8117	 -4.227304	
11.8742	 -4.236946	
11.9367	 -4.221197	
11.9992	 -4.229301	
12.0617	 -4.300938	
12.1242	 -4.335161	
12.1867	 -4.329690	
12.2492	 -4.295796	
12.3117	 -4.243385	
12.3742	 -4.223582	
12.4367	 -4.216169	
12.4992	 -4.236011	
12.5617	 -4.281901	
12.6242	 -4.321636	
12.6867	 -4.403528	
12.7492	 -4.452910	
12.8117	 -4.402885	
12.8742	 -4.350721	
12.9367	 -4.321952	
12.9992	 -4.350672	
13.0617	 -4.432352	
13.1242	 -4.450804	
13.1867	 -4.423325	
13.2492	 -4.380886	
13.3116	 -4.324570	
13.3741	 -4.313777	
13.4366	 -4.337838	
13.4991	 -4.391217	
13.5616	 -4.443901	
13.6241	 -4.451113	
13.6866	 -4.458060	
13.7491	 -4.405735	
13.8116	 -4.291890	
13.8741	 -4.235226	
13.9366	 -4.210014	
13.9991	 -4.235740	
14.0616	 -4.303574	
14.1241	 -4.308350	
14.1866	 -4.303124	
